<svg width="24" height="25" viewBox="0 0 24 25" fill="none" xmlns="http://www.w3.org/2000/svg">
    <path d="M15.164 10.96C15.2187 11.4959 15.25 12.0146 15.25 12.5C15.25 13.4087 15.1402 14.4348 14.9722 15.4722C13.9348 15.6402 12.9087 15.75 12 15.75C11.0954 15.75 10.0697 15.6405 9.02773 15.4719C8.85982 14.4345 8.75 13.4086 8.75 12.5C8.75 12.0148 8.78132 11.496 8.83609 10.96C9.9296 11.1351 11.0205 11.25 12 11.25C12.9796 11.25 14.0705 11.1351 15.164 10.96Z" fill="#0E81F6"/>
    <path d="M16.6431 10.6899C16.7107 11.3171 16.75 11.9277 16.75 12.5C16.75 13.3352 16.6664 14.2514 16.5333 15.1812C18.4214 14.7872 20.1667 14.2839 21.1016 13.9974C21.4038 13.9047 21.5224 13.8679 21.6817 13.8042C21.7613 13.7724 21.8343 13.74 21.9294 13.6945C21.976 13.3029 22 12.9042 22 12.5C22 11.4314 21.8324 10.402 21.5221 9.43663L21.4412 9.46207C20.4637 9.75947 18.6335 10.2852 16.6431 10.6899Z" fill="#0E81F6"/>
    <path d="M20.954 8.04236C19.9712 8.3402 18.2657 8.82419 16.438 9.20098C16.017 6.64215 15.279 4.09001 14.924 2.93427C17.564 3.74025 19.7403 5.60921 20.954 8.04236Z" fill="#0E81F6"/>
    <path d="M14.9635 9.47361C13.9289 9.64077 12.906 9.75 12 9.75C11.094 9.75 10.0712 9.64078 9.0366 9.47362C9.43306 7.05243 10.1408 4.5791 10.5026 3.39841C10.5953 3.09625 10.6321 2.97756 10.6958 2.81826C10.7276 2.73869 10.76 2.6657 10.8055 2.57061C11.1971 2.52399 11.5958 2.5 12 2.5C12.4223 2.5 12.8384 2.52617 13.2469 2.57699C13.2556 2.61013 13.2636 2.6398 13.2715 2.66786C13.2949 2.75079 13.3316 2.86734 13.3931 3.06289L13.3996 3.08344C13.7081 4.06403 14.5256 6.79906 14.9635 9.47361Z" fill="#0E81F6"/>
    <path d="M7.56194 9.20095C7.98105 6.6534 8.71415 4.11501 9.06849 2.95887L9.07603 2.93426C6.43597 3.74024 4.25972 5.60919 3.04604 8.04234C4.02874 8.34018 5.73424 8.82415 7.56194 9.20095Z" fill="#0E81F6"/>
    <path d="M2.47794 9.43662C2.1676 10.402 2 11.4314 2 12.5C2 12.918 2.02565 13.33 2.07546 13.7346L2.23306 13.7871L2.23431 13.7875L2.23586 13.788L2.23694 13.7884C2.28767 13.8052 3.77434 14.2962 5.73217 14.7833C6.28463 14.9207 6.86959 15.0566 7.46672 15.1811C7.33357 14.2513 7.25 13.3351 7.25 12.5C7.25 11.9275 7.28928 11.3169 7.35688 10.6899C5.36598 10.2851 3.53541 9.75916 2.55806 9.4618L2.55127 9.45973L2.47794 9.43662Z" fill="#0E81F6"/>
    <path d="M12 17.25C12.8352 17.25 13.7514 17.1664 14.6812 17.0333C14.2872 18.9214 13.7839 20.6667 13.4974 21.6016C13.4048 21.9037 13.3679 22.0224 13.3042 22.1817C13.2724 22.2613 13.24 22.3343 13.1945 22.4294C12.8029 22.476 12.4042 22.5 12 22.5C11.5958 22.5 11.1971 22.476 10.8055 22.4294C10.76 22.3343 10.7276 22.2613 10.6958 22.1817C10.6321 22.0224 10.5953 21.9038 10.5026 21.6016C10.2161 20.6668 9.71282 18.9216 9.31884 17.0336C10.2456 17.1663 11.162 17.25 12 17.25Z" fill="#0E81F6"/>
    <path d="M5.37 16.2389C4.13193 15.9309 3.07748 15.6215 2.43425 15.424C3.40246 18.5954 5.90459 21.0975 9.07603 22.0657L9.06849 22.0411C8.7591 21.0316 8.16092 18.9683 7.73515 16.7651C6.90715 16.605 6.10212 16.4211 5.37 16.2389Z" fill="#0E81F6"/>
    <path d="M21.5411 15.4315C20.5316 15.7409 18.4681 16.3391 16.2649 16.7649C15.8391 18.9681 15.2409 21.0316 14.9315 22.0411L14.924 22.0657C18.0954 21.0975 20.5975 18.5954 21.5657 15.424L21.5411 15.4315Z" fill="#0E81F6"/>
    <path d="M2.10505 13.76C2.13967 13.7645 2.16788 13.7692 2.17724 13.7713C2.18545 13.7734 2.19829 13.7767 2.20296 13.778L2.21325 13.781L2.21879 13.7826L2.22462 13.7844L2.2295 13.786C2.22676 13.7851 2.1712 13.7712 2.10505 13.76Z" fill="#0E81F6"/>
</svg>
