<svg width="6" height="6" viewBox="0 0 6 6" fill="none" xmlns="http://www.w3.org/2000/svg">
    <path d="M3.46998 5.50026C3.33191 5.50026 3.21998 5.61219 3.21998 5.75026C3.21998 5.88833 3.33191 6.00026 3.46998 6.00026H5.46998C5.60805 6.00026 5.71998 5.88833 5.71998 5.75026C5.71998 5.61219 5.60805 5.50026 5.46998 5.50026H3.46998Z" fill="#0E81F6"/>
    <path d="M3.73467 0.525086L3.76469 0.542418C4.02406 0.692157 4.24035 0.81702 4.39872 0.939234C4.56588 1.06823 4.69856 1.2163 4.75413 1.42369C4.8097 1.63109 4.76883 1.82565 4.68857 2.02095C4.63285 2.1565 4.55093 2.30883 4.45222 2.48259L4.24045 2.35672L4.23772 2.35512L1.92928 1.02234L1.7134 0.895108C1.81343 0.724744 1.90356 0.579235 1.99229 0.464252C2.12129 0.297091 2.26935 0.164415 2.47675 0.108844C2.68414 0.0532729 2.87871 0.0941412 3.074 0.174408C3.25903 0.250453 3.47531 0.375333 3.73467 0.525086Z" fill="#0E81F6"/>
    <path d="M1.46293 1.32786L0.303602 3.33583C0.20434 3.50743 0.125853 3.64312 0.0967747 3.79745C0.0676961 3.95179 0.0914251 4.10673 0.121435 4.30269L0.129521 4.35566C0.184916 4.71944 0.230576 5.0193 0.299443 5.24668C0.371467 5.48449 0.482185 5.69033 0.699942 5.81606C0.917699 5.94178 1.15132 5.93474 1.39328 5.87821C1.62464 5.82416 1.90715 5.71378 2.24989 5.57986L2.29981 5.56038C2.48452 5.48839 2.63057 5.43146 2.74969 5.32911C2.86881 5.22676 2.94707 5.09095 3.04605 4.91918L4.20263 2.91589L3.98634 2.78734L1.67637 1.45368L1.46293 1.32786Z" fill="#0E81F6"/>
</svg>
