<svg width="18" height="21" viewBox="0 0 18 21" fill="none" xmlns="http://www.w3.org/2000/svg">
    <path fill-rule="evenodd" clip-rule="evenodd"
        d="M18 11.5C18 15.2497 18 17.1246 17.0451 18.4389C16.7367 18.8634 16.3634 19.2367 15.9389 19.5451C14.6246 20.5 12.7497 20.5 9 20.5C5.25027 20.5 3.3754 20.5 2.06107 19.5451C1.6366 19.2367 1.26331 18.8634 0.954914 18.4389C0 17.1246 0 15.2497 0 11.5V9.5C0 8.66106 0 7.91596 0.0106945 7.25L0.0808201 7.25C0.932837 7.25007 1.45182 7.25011 1.8995 7.17921C4.35988 6.78952 6.28952 4.85988 6.67921 2.3995C6.75011 1.95182 6.75007 1.43284 6.75 0.58082L6.75 0.510695C7.41596 0.5 8.16106 0.5 9 0.5C12.7497 0.5 14.6246 0.5 15.9389 1.45491C16.3634 1.76331 16.7367 2.1366 17.0451 2.56107C18 3.8754 18 5.75027 18 9.5V11.5ZM8.25 8.5C8.25 8.08579 8.58579 7.75 9 7.75C9.41421 7.75 9.75 8.08579 9.75 8.5V10.75H12C12.4142 10.75 12.75 11.0858 12.75 11.5C12.75 11.9142 12.4142 12.25 12 12.25H9.75V14.5C9.75 14.9142 9.41421 15.25 9 15.25C8.58579 15.25 8.25 14.9142 8.25 14.5V12.25H6C5.58579 12.25 5.25 11.9142 5.25 11.5C5.25 11.0858 5.58579 10.75 6 10.75H8.25V8.5Z"
        fill="#0E81F6" />
    <path
        d="M1.66485 5.69768C1.35646 5.74652 0.975676 5.74987 0.0653362 5.75C0.159744 4.31037 0.390566 3.33783 0.954914 2.56107C1.26331 2.1366 1.6366 1.76331 2.06107 1.45491C2.83783 0.890566 3.81037 0.659744 5.25 0.565336C5.24987 1.47568 5.24652 1.85645 5.19768 2.16485C4.90965 3.98339 3.48339 5.40965 1.66485 5.69768Z"
        fill="#0E81F6" />
</svg>