<svg width="24" height="25" viewBox="0 0 24 25" fill="none" xmlns="http://www.w3.org/2000/svg">
    <path fill-rule="evenodd" clip-rule="evenodd" d="M5.06107 3.45491C5.16622 3.37852 5.27495 3.30825 5.38793 3.24359C5.42423 3.32442 5.47557 3.40015 5.54195 3.46653C6.8325 4.75703 7.84549 5.76842 8.73846 6.48311C9.64248 7.20666 10.4891 7.68158 11.4645 7.83608C12.0605 7.93047 12.6676 7.93047 13.2635 7.83608C14.2117 7.6859 15.038 7.23301 15.9137 6.54333C16.7783 5.86245 17.7489 4.90277 18.9707 3.68187C19.0099 3.6427 19.0438 3.60027 19.0725 3.55545C19.442 3.84326 19.7695 4.18172 20.0451 4.56107C21 5.8754 21 7.75027 21 11.5V13.5C21 17.2497 21 19.1246 20.0451 20.4389C19.7367 20.8634 19.3634 21.2367 18.9389 21.5451C17.6246 22.5 15.7497 22.5 12 22.5C8.25027 22.5 6.3754 22.5 5.06107 21.5451C4.6366 21.2367 4.26331 20.8634 3.95491 20.4389C3 19.1246 3 17.2497 3 13.5V11.5C3 7.75027 3 5.8754 3.95491 4.56107C4.26331 4.1366 4.6366 3.76331 5.06107 3.45491ZM8 9.75C7.58579 9.75 7.25 10.0858 7.25 10.5C7.25 10.9142 7.58579 11.25 8 11.25H11C11.4142 11.25 11.75 10.9142 11.75 10.5C11.75 10.0858 11.4142 9.75 11 9.75H8ZM8 13.75C7.58579 13.75 7.25 14.0858 7.25 14.5C7.25 14.9142 7.58579 15.25 8 15.25H16C16.4142 15.25 16.75 14.9142 16.75 14.5C16.75 14.0858 16.4142 13.75 16 13.75H8ZM8 17.75C7.58579 17.75 7.25 18.0858 7.25 18.5C7.25 18.9142 7.58579 19.25 8 19.25H16C16.4142 19.25 16.75 18.9142 16.75 18.5C16.75 18.0858 16.4142 17.75 16 17.75H8Z" fill="#0E81F6"/>
    <path d="M12 2.5C14.6999 2.5 16.4278 2.5 17.6744 2.85647C16.554 3.97389 15.716 4.78975 14.9857 5.3649C14.2161 5.97095 13.6262 6.25993 13.0289 6.35454C12.5884 6.42431 12.1397 6.42431 11.6992 6.35454C11.0846 6.25721 10.4782 5.95425 9.67576 5.31202C8.92863 4.71404 8.06901 3.87043 6.9166 2.71968C8.10873 2.5 9.70241 2.5 12 2.5Z" fill="#0E81F6"/>
</svg>
