<svg width="22" height="23" viewBox="0 0 22 23" fill="none" xmlns="http://www.w3.org/2000/svg">
    <path
        d="M8.75 11.5C8.75 10.2574 9.75736 9.25002 11 9.25002C12.2426 9.25002 13.25 10.2574 13.25 11.5C13.25 12.7427 12.2426 13.75 11 13.75C9.75736 13.75 8.75 12.7427 8.75 11.5Z"
        fill="#0E81F6" />
    <path fill-rule="evenodd" clip-rule="evenodd"
        d="M7.58523 2.7323C8.56564 -0.703083 13.4342 -0.703084 14.4147 2.7323C14.7184 3.7967 15.812 4.42806 16.8857 4.15893C20.351 3.2903 22.7853 7.50664 20.3004 10.0734C19.5305 10.8687 19.5305 12.1314 20.3004 12.9266C22.7853 15.4934 20.351 19.7097 16.8857 18.8411C15.812 18.572 14.7184 19.2033 14.4147 20.2677C13.4342 23.7031 8.56564 23.7031 7.58523 20.2677C7.28146 19.2033 6.18792 18.572 5.11423 18.8411C1.6489 19.7097 -0.785401 15.4934 1.69952 12.9266C2.46944 12.1314 2.46944 10.8687 1.69952 10.0734C-0.785401 7.50664 1.6489 3.2903 5.11423 4.15893C6.18792 4.42806 7.28146 3.7967 7.58523 2.7323ZM11 7.75002C8.92893 7.75002 7.25 9.42895 7.25 11.5C7.25 13.5711 8.92893 15.25 11 15.25C13.0711 15.25 14.75 13.5711 14.75 11.5C14.75 9.42895 13.0711 7.75002 11 7.75002Z"
        fill="#0E81F6" />
</svg>