<svg width="18" height="19" viewBox="0 0 18 19" fill="none" xmlns="http://www.w3.org/2000/svg">
    <path d="M9.9863 6.46167C9.74468 6.88017 9.88807 7.41531 10.3066 7.65694C10.7251 7.89856 11.2602 7.75517 11.5018 7.33667C11.7435 6.91816 11.6001 6.38302 11.1816 6.1414C10.7631 5.89977 10.2279 6.04316 9.9863 6.46167Z" fill="white"/>
    <path fill-rule="evenodd" clip-rule="evenodd" d="M8.46037 1.34398C9.96924 0.867945 10.8883 0.577994 11.7151 0.594412C13.4411 0.628684 15.0289 1.54545 15.9216 3.02304C16.3492 3.73086 16.5576 4.67174 16.8998 6.21644L16.9444 6.41773C17.0785 7.02239 17.161 7.39443 17.1871 7.76773C17.2411 8.53943 17.1165 9.31318 16.8228 10.0289C16.6808 10.3751 16.4856 10.7024 16.1684 11.2343L13.9221 15.0019C13.2071 16.2014 12.7708 16.9335 12.2172 17.4372C10.9938 18.5503 9.30159 18.991 7.69073 18.6161C6.96168 18.4464 6.22376 18.0202 5.01452 17.3218L4.78553 17.1896C3.57609 16.4916 2.83804 16.0656 2.32656 15.5191C1.19644 14.3115 0.732002 12.6256 1.08427 11.0096C1.2437 10.2783 1.65948 9.53444 2.34083 8.31551L4.48053 4.4863C4.78259 3.94563 4.96846 3.61294 5.19725 3.31683C5.67022 2.70468 6.27798 2.20984 6.9733 1.87077C7.30964 1.70675 7.67309 1.59218 8.26377 1.40598L8.46037 1.34398ZM8.84964 5.80542C8.24558 6.85168 8.60406 8.18954 9.65032 8.7936C10.6966 9.39766 12.0344 9.03918 12.6385 7.99292C13.2426 6.94665 12.8841 5.6088 11.8378 5.00474C10.7916 4.40068 9.4537 4.75915 8.84964 5.80542Z" fill="white"/>
</svg>
