<svg width="17" height="19" viewBox="0 0 17 19" fill="none" xmlns="http://www.w3.org/2000/svg">
    <path d="M8.5 0.59375C6.20457 0.59375 4.34375 2.45457 4.34375 4.75V4.96875H1.5C1.13756 4.96875 0.84375 5.26256 0.84375 5.625C0.84375 5.98744 1.13756 6.28125 1.5 6.28125H15.5C15.8624 6.28125 16.1562 5.98744 16.1562 5.625C16.1562 5.26256 15.8624 4.96875 15.5 4.96875H12.6562V4.75C12.6562 2.45457 10.7954 0.59375 8.5 0.59375Z" fill="white"/>
    <path d="M14.2025 10.6821L13.973 12.3315C13.7235 14.1241 13.5988 15.0204 13.3343 15.7403C12.8397 17.0865 11.9848 18.0891 10.9643 18.5197C10.4186 18.75 9.77907 18.75 8.5 18.75C7.22093 18.75 6.58138 18.75 6.03569 18.5197C5.01525 18.0891 4.16029 17.0865 3.6657 15.7403C3.40121 15.0204 3.27647 14.1241 3.027 12.3315L2.79745 10.6821C2.7268 10.1744 2.66228 9.71077 2.60487 9.28507C2.48693 8.4105 2.42796 7.97321 2.68944 7.67411C2.95092 7.375 3.40033 7.375 4.29915 7.375H12.7008C13.5997 7.375 14.0491 7.375 14.3106 7.67411C14.572 7.97321 14.5131 8.4105 14.3951 9.28507C14.3377 9.71064 14.2732 10.1746 14.2025 10.6821Z" fill="white"/>
</svg>
